<mxfile host="app.diagrams.net" modified="2022-12-20T11:43:47.846Z" agent="5.0 (Windows NT 10.0; Win64; x64) AppleWebKit/537.36 (KHTML, like Gecko) Chrome/108.0.0.0 Safari/537.36" etag="Sfzm3EPaxTtmTazrzLH0" version="20.7.4" type="github">
  <diagram id="-hH9d2lIc1gKMuM6mxmg" name="第 1 页">
    <mxGraphModel dx="882" dy="540" grid="1" gridSize="10" guides="1" tooltips="1" connect="1" arrows="1" fold="1" page="1" pageScale="1" pageWidth="827" pageHeight="1169" math="0" shadow="0">
      <root>
        <mxCell id="0" />
        <mxCell id="1" parent="0" />
        <mxCell id="vseHJ2KrngmxYYqJClZU-1" value="" style="endArrow=none;html=1;rounded=0;" parent="1" edge="1">
          <mxGeometry width="50" height="50" relative="1" as="geometry">
            <mxPoint x="200" y="240" as="sourcePoint" />
            <mxPoint x="600" y="240" as="targetPoint" />
          </mxGeometry>
        </mxCell>
        <mxCell id="vseHJ2KrngmxYYqJClZU-2" value="内核" style="text;html=1;strokeColor=none;fillColor=none;align=center;verticalAlign=middle;whiteSpace=wrap;rounded=0;" parent="1" vertex="1">
          <mxGeometry x="200" y="250" width="60" height="30" as="geometry" />
        </mxCell>
        <mxCell id="vseHJ2KrngmxYYqJClZU-3" value="用户态" style="text;html=1;strokeColor=none;fillColor=none;align=center;verticalAlign=middle;whiteSpace=wrap;rounded=0;" parent="1" vertex="1">
          <mxGeometry x="200" y="200" width="60" height="30" as="geometry" />
        </mxCell>
        <mxCell id="vseHJ2KrngmxYYqJClZU-4" value="PMO_USER_FAULT" style="rounded=0;whiteSpace=wrap;html=1;" parent="1" vertex="1">
          <mxGeometry x="409" y="270" width="140" height="40" as="geometry" />
        </mxCell>
        <mxCell id="vseHJ2KrngmxYYqJClZU-6" style="edgeStyle=orthogonalEdgeStyle;rounded=0;orthogonalLoop=1;jettySize=auto;html=1;exitX=1;exitY=0.5;exitDx=0;exitDy=0;entryX=0;entryY=0.5;entryDx=0;entryDy=0;" parent="1" source="vseHJ2KrngmxYYqJClZU-5" target="vseHJ2KrngmxYYqJClZU-4" edge="1">
          <mxGeometry relative="1" as="geometry" />
        </mxCell>
        <mxCell id="vseHJ2KrngmxYYqJClZU-5" value="VMR" style="rounded=0;whiteSpace=wrap;html=1;" parent="1" vertex="1">
          <mxGeometry x="278" y="270" width="100" height="40" as="geometry" />
        </mxCell>
        <mxCell id="vseHJ2KrngmxYYqJClZU-7" value="" style="rounded=0;whiteSpace=wrap;html=1;" parent="1" vertex="1">
          <mxGeometry x="260" y="140" width="140" height="90" as="geometry" />
        </mxCell>
        <mxCell id="vseHJ2KrngmxYYqJClZU-8" value="" style="rounded=0;whiteSpace=wrap;html=1;" parent="1" vertex="1">
          <mxGeometry x="430" y="140" width="140" height="90" as="geometry" />
        </mxCell>
        <mxCell id="vseHJ2KrngmxYYqJClZU-9" value="缺页处理函数" style="rounded=0;whiteSpace=wrap;html=1;" parent="1" vertex="1">
          <mxGeometry x="441" y="200" width="120" height="20" as="geometry" />
        </mxCell>
        <mxCell id="vseHJ2KrngmxYYqJClZU-11" value="虚拟地址段" style="rounded=0;whiteSpace=wrap;html=1;" parent="1" vertex="1">
          <mxGeometry x="269" y="200" width="120" height="20" as="geometry" />
        </mxCell>
        <mxCell id="vseHJ2KrngmxYYqJClZU-13" value="待处理缺页地址" style="rounded=0;whiteSpace=wrap;html=1;" parent="1" vertex="1">
          <mxGeometry x="320" y="340" width="110" height="20" as="geometry" />
        </mxCell>
        <mxCell id="vseHJ2KrngmxYYqJClZU-14" value="待处理缺页地址" style="rounded=0;whiteSpace=wrap;html=1;" parent="1" vertex="1">
          <mxGeometry x="320" y="360" width="110" height="20" as="geometry" />
        </mxCell>
        <mxCell id="vseHJ2KrngmxYYqJClZU-15" value="待处理缺页地址" style="rounded=0;whiteSpace=wrap;html=1;" parent="1" vertex="1">
          <mxGeometry x="320" y="380" width="110" height="20" as="geometry" />
        </mxCell>
        <mxCell id="vseHJ2KrngmxYYqJClZU-16" value="待处理缺页地址" style="rounded=0;whiteSpace=wrap;html=1;" parent="1" vertex="1">
          <mxGeometry x="320" y="400" width="110" height="20" as="geometry" />
        </mxCell>
        <mxCell id="vseHJ2KrngmxYYqJClZU-17" value="" style="shape=curlyBracket;whiteSpace=wrap;html=1;rounded=1;flipH=1;labelPosition=right;verticalLabelPosition=middle;align=left;verticalAlign=middle;" parent="1" vertex="1">
          <mxGeometry x="440" y="340" width="20" height="80" as="geometry" />
        </mxCell>
        <mxCell id="vseHJ2KrngmxYYqJClZU-18" value="缺页完成后删除" style="text;html=1;strokeColor=none;fillColor=none;align=center;verticalAlign=middle;whiteSpace=wrap;rounded=0;" parent="1" vertex="1">
          <mxGeometry x="460" y="365" width="99" height="30" as="geometry" />
        </mxCell>
        <mxCell id="WVq_M0smEwnhjDYlCluk-1" value="用户程序" style="text;html=1;strokeColor=none;fillColor=none;align=center;verticalAlign=middle;whiteSpace=wrap;rounded=0;" vertex="1" parent="1">
          <mxGeometry x="298" y="155" width="60" height="30" as="geometry" />
        </mxCell>
        <mxCell id="vseHJ2KrngmxYYqJClZU-12" style="edgeStyle=orthogonalEdgeStyle;curved=1;rounded=0;orthogonalLoop=1;jettySize=auto;html=1;exitX=0;exitY=0;exitDx=0;exitDy=0;entryX=0;entryY=0.5;entryDx=0;entryDy=0;startArrow=classic;startFill=1;" parent="1" source="vseHJ2KrngmxYYqJClZU-5" target="vseHJ2KrngmxYYqJClZU-11" edge="1">
          <mxGeometry relative="1" as="geometry">
            <Array as="points">
              <mxPoint x="278" y="245" />
              <mxPoint x="249" y="245" />
              <mxPoint x="249" y="210" />
            </Array>
          </mxGeometry>
        </mxCell>
        <mxCell id="WVq_M0smEwnhjDYlCluk-2" value="文件系统服务" style="text;html=1;strokeColor=none;fillColor=none;align=center;verticalAlign=middle;whiteSpace=wrap;rounded=0;" vertex="1" parent="1">
          <mxGeometry x="460" y="155" width="80" height="30" as="geometry" />
        </mxCell>
        <mxCell id="vseHJ2KrngmxYYqJClZU-10" style="edgeStyle=orthogonalEdgeStyle;rounded=0;orthogonalLoop=1;jettySize=auto;html=1;exitX=1;exitY=0;exitDx=0;exitDy=0;entryX=1;entryY=0.5;entryDx=0;entryDy=0;startArrow=classic;startFill=1;curved=1;" parent="1" source="vseHJ2KrngmxYYqJClZU-4" target="vseHJ2KrngmxYYqJClZU-9" edge="1">
          <mxGeometry relative="1" as="geometry" />
        </mxCell>
      </root>
    </mxGraphModel>
  </diagram>
</mxfile>
